<?xml version="1.0" standalone="no"?>
<!DOCTYPE svg PUBLIC "-//W3C//DTD SVG 20010904//EN"
 "http://www.w3.org/TR/2001/REC-SVG-20010904/DTD/svg10.dtd">
<svg version="1.0" xmlns="http://www.w3.org/2000/svg"
 width="640.000000pt" height="640.000000pt" viewBox="0 0 640.000000 640.000000"
 preserveAspectRatio="xMidYMid meet">
<metadata>
Created by potrace 1.14, written by Peter Selinger 2001-2017
</metadata>
<g transform="translate(0.000000,640.000000) scale(0.100000,-0.100000)"
fill="#000000" stroke="none">
<path d="M2907 5736 c-28 -30 -33 -77 -10 -102 10 -11 65 -58 123 -104 58 -47
110 -89 116 -95 6 -5 29 -25 52 -43 23 -19 50 -41 61 -50 11 -10 34 -28 52
-42 18 -14 37 -30 43 -35 6 -6 46 -39 89 -73 42 -35 77 -66 77 -70 0 -4 -21
-16 -48 -26 -26 -10 -71 -29 -100 -42 -29 -13 -55 -24 -58 -24 -3 0 -29 -11
-57 -23 -29 -13 -112 -48 -186 -78 -159 -65 -185 -84 -178 -137 7 -47 17 -53
191 -125 78 -32 155 -64 171 -71 17 -8 55 -24 85 -36 30 -12 69 -28 85 -35 17
-8 47 -20 67 -29 l37 -15 1 -68 c1 -37 1 -77 1 -88 -1 -11 -1 -38 0 -60 0 -22
0 -44 0 -50 0 -5 -2 -38 -3 -73 -2 -34 -1 -62 2 -62 4 0 4 -101 0 -120 0 -3 0
-63 0 -135 1 -71 1 -137 1 -145 -1 -8 -1 -33 0 -55 0 -22 0 -44 0 -50 0 -5 -2
-38 -3 -73 -2 -34 -1 -62 2 -62 3 0 5 -48 6 -108 0 -114 12 -247 30 -332 3
-14 7 -38 10 -53 18 -99 79 -286 136 -417 59 -138 211 -396 258 -440 3 -3 17
-21 31 -40 15 -19 38 -47 52 -62 14 -16 24 -28 23 -28 -14 0 169 -171 264
-248 36 -29 70 -57 77 -62 6 -5 26 -18 45 -30 32 -19 32 -20 8 -21 -89 -2
-437 -18 -515 -24 -33 -3 -96 -7 -140 -10 -155 -11 -310 -23 -385 -30 -30 -3
-80 -8 -110 -10 -111 -11 -156 -15 -190 -19 -19 -2 -66 -7 -105 -11 -38 -4
-81 -9 -95 -10 -154 -17 -146 -16 -235 -29 -22 -3 -62 -9 -90 -11 -66 -8 -104
-13 -140 -19 -16 -3 -52 -8 -80 -12 -27 -3 -61 -8 -75 -10 -14 -2 -41 -6 -60
-8 -19 -3 -48 -7 -65 -9 -16 -3 -50 -9 -75 -12 -25 -4 -54 -9 -65 -11 -10 -2
-37 -6 -60 -9 -40 -6 -124 -20 -180 -30 -16 -3 -46 -8 -65 -11 -19 -2 -57 -9
-85 -15 -27 -5 -63 -11 -80 -14 -16 -2 -55 -8 -85 -14 -30 -6 -66 -12 -80 -15
-14 -3 -117 -23 -230 -46 -113 -22 -216 -43 -230 -46 -14 -2 -45 -9 -70 -14
-25 -5 -60 -12 -79 -15 -19 -3 -38 -8 -41 -10 -4 -3 -25 -7 -45 -11 -47 -7
-22 -2 -322 -68 -138 -31 -262 -60 -276 -65 -30 -12 -87 -68 -87 -87 0 -8 -4
-14 -9 -14 -16 0 -6 -113 12 -147 9 -18 34 -45 54 -60 l36 -28 2596 0 c1428 0
2616 4 2641 8 25 5 61 11 80 14 49 7 205 59 270 90 53 25 190 102 200 113 3 3
28 23 55 44 137 107 263 266 341 430 74 156 99 276 99 466 -1 202 -26 327 -98
480 -17 36 -31 68 -31 71 -2 14 -100 159 -108 159 -4 0 -8 6 -8 13 0 15 -108
127 -176 182 -98 81 -178 125 -728 400 -494 247 -565 285 -610 330 -69 68 -84
89 -113 154 -36 81 -36 78 -40 286 -5 207 -4 255 2 265 7 11 65 18 70 9 3 -4
20 -3 39 1 19 4 37 6 39 3 3 -2 36 -4 73 -3 139 3 214 1 222 -4 4 -2 14 -1 21
3 7 5 30 5 52 1 22 -4 41 -4 44 0 7 11 82 -5 102 -21 10 -8 26 -21 36 -29 11
-8 24 -20 31 -25 6 -6 40 -33 74 -60 35 -28 83 -67 105 -87 64 -56 138 -89
215 -94 37 -2 73 -6 80 -9 6 -2 12 -1 12 3 0 4 23 7 50 7 28 0 50 -4 50 -8 0
-5 4 -6 8 -3 7 4 74 7 122 5 114 -4 243 75 294 181 12 25 31 61 41 80 11 19
20 37 21 40 1 3 5 15 9 28 4 12 11 22 16 22 5 0 9 4 9 9 0 5 16 45 36 88 45
96 53 167 29 248 -14 48 -43 105 -65 125 -3 3 -17 21 -30 40 -13 19 -27 37
-30 40 -3 3 -22 28 -41 55 -18 28 -36 52 -39 55 -10 9 -104 132 -130 170 -13
19 -84 115 -108 145 -24 32 -145 191 -247 328 -102 136 -141 180 -200 226 -6
4 -32 15 -59 24 -44 15 -161 17 -1278 17 l-1229 0 -22 -24z m2158 -680 c11 -3
21 -5 23 -7 1 -1 5 -2 10 -3 91 -20 239 -62 244 -70 12 -18 -70 -136 -96 -136
-5 0 -18 -8 -28 -17 -27 -25 -150 -24 -200 1 -50 24 -105 82 -119 124 -11 34
-19 119 -12 138 3 8 28 5 81 -8 42 -10 86 -20 97 -22z"/>
<path d="M1490 4779 c-74 -19 -145 -51 -209 -95 -19 -12 -310 -296 -647 -630
-442 -437 -616 -616 -624 -640 -22 -66 0 -138 56 -180 29 -22 47 -28 88 -28
51 0 117 8 146 18 8 3 31 7 50 10 19 3 46 7 60 10 25 5 278 51 335 61 17 3 66
12 110 21 44 9 89 17 100 19 11 1 36 5 55 9 19 3 46 8 60 10 14 2 54 10 90 16
36 7 74 14 85 16 11 1 29 5 40 7 19 4 75 15 123 23 12 2 34 6 50 9 15 3 50 10
77 15 28 5 59 11 70 13 11 3 40 8 65 12 51 8 74 12 110 20 14 2 39 7 55 10 17
3 41 7 54 10 35 7 39 10 -309 -251 -168 -125 -306 -232 -308 -236 -2 -4 -8 -8
-14 -8 -5 0 -15 -6 -23 -12 -21 -21 -48 -41 -88 -68 -20 -14 -37 -28 -37 -32
0 -5 -6 -8 -14 -8 -8 0 -16 -3 -18 -8 -1 -4 -23 -23 -47 -41 -54 -43 -72 -84
-66 -148 9 -91 85 -148 188 -141 26 2 47 -1 47 -5 0 -5 5 -5 10 -2 8 5 56 6
165 4 13 -1 93 1 120 2 11 0 25 0 30 0 17 0 139 0 158 0 29 -1 66 -1 80 0 11
0 116 0 160 0 29 -1 66 -1 80 0 11 0 116 0 160 0 32 -1 67 -1 80 0 6 0 55 0
107 -1 52 -1 98 -1 103 0 23 3 179 1 183 -3 3 -3 20 -1 39 3 19 4 36 6 38 3 5
-4 58 -4 185 -1 29 0 55 -1 58 -4 3 -3 19 -3 37 1 18 4 50 4 72 1 22 -3 58 -3
80 0 22 3 54 3 72 -1 18 -3 35 -4 38 -1 3 4 24 5 45 3 45 -3 46 0 25 61 -17
51 -42 141 -61 223 -20 83 -22 94 -29 145 -3 25 -8 51 -10 58 -9 24 -19 174
-20 274 0 54 -4 98 -8 98 -5 0 -5 4 -2 10 3 5 5 38 5 72 0 35 -1 72 0 83 0 11
-1 43 -1 70 -1 28 -1 57 0 65 5 58 -1 96 -17 108 -9 7 -27 22 -40 32 -12 11
-26 20 -31 20 -5 0 -11 3 -13 8 -1 4 -21 19 -44 35 -22 15 -50 36 -62 47 -12
11 -24 20 -27 20 -3 0 -11 5 -18 10 -20 17 -105 80 -247 183 -74 54 -142 103
-150 110 -8 7 -56 41 -105 77 -50 35 -94 68 -100 72 -5 5 -35 26 -65 48 -30
22 -59 43 -65 48 -5 4 -25 19 -44 32 -19 14 -42 30 -50 37 -125 94 -209 143
-291 168 -85 26 -249 28 -340 4z"/>
</g>
</svg>
